<svg version="1.1" id="Layer_1" xmlns="http://www.w3.org/2000/svg" xmlns:xlink="http://www.w3.org/1999/xlink" x="0px" y="0px"
	 width="100%" viewBox="0 0 819 444" enable-background="new 0 0 819 444" xml:space="preserve">
<path fill="#FFFFFF" opacity="1.000000" stroke="none" 
	d="
M483.000000,445.000000 
	C323.500000,445.000000 164.499985,444.984650 5.500064,445.093933 
	C1.750648,445.096527 0.903077,444.249390 0.905945,440.499939 
	C1.016858,295.500000 1.016858,150.499985 0.905945,5.500072 
	C0.903077,1.750598 1.750849,0.905303 5.500035,0.906725 
	C275.500000,1.009084 545.500000,1.009084 815.499939,0.906725 
	C819.249146,0.905303 820.096924,1.750598 820.094055,5.500072 
	C819.983154,150.499985 819.983154,295.500000 820.094116,440.499939 
	C820.096985,444.249390 819.249573,445.098541 815.499878,445.094574 
	C704.833313,444.977997 594.166687,445.000000 483.000000,445.000000 
z"/>
<path fill="#F50258" opacity="1.000000" stroke="none" 
	d="
M262.716125,251.000061 
	C262.716095,276.992950 262.723297,302.485809 262.712189,327.978699 
	C262.708405,336.647034 259.302551,340.154022 250.741852,340.156158 
	C180.428177,340.173645 110.114517,340.172607 39.800846,340.158569 
	C30.871754,340.156799 27.475151,336.816193 27.470669,327.763458 
	C27.435936,257.616425 27.432938,187.469345 27.473860,117.322334 
	C27.479059,108.407913 31.019447,105.009468 39.992592,105.007248 
	C110.139633,104.989861 180.286682,104.988060 250.433731,105.009872 
	C259.221741,105.012604 262.711456,108.632912 262.712860,117.537354 
	C262.719910,161.858261 262.716125,206.179153 262.716125,251.000061 
z"/>
<path fill="#F50A5D" opacity="1.000000" stroke="none" 
	d="
M372.334229,249.401932 
	C359.660645,252.643875 347.126953,251.267700 334.684174,251.574112 
	C331.318359,251.656982 332.166534,249.160477 332.162506,247.347992 
	C332.123779,229.868500 332.148499,212.388870 332.132019,194.909317 
	C332.128418,191.081589 332.168610,187.246094 331.946716,183.428223 
	C331.659912,178.493362 330.028748,174.608429 324.053680,174.620834 
	C323.054108,174.622925 321.407410,174.932602 321.563416,173.095337 
	C321.651733,172.055023 322.783203,172.132095 323.584595,172.157211 
	C339.023773,172.641098 354.563507,170.719421 369.888763,173.902649 
	C388.595306,177.788208 399.302399,190.527527 400.026306,209.574356 
	C400.780884,229.428391 390.816284,243.908493 372.334229,249.401932 
z"/>
<path fill="#F5095D" opacity="1.000000" stroke="none" 
	d="
M652.300171,176.674194 
	C658.353394,181.211197 657.965637,187.536530 658.061768,193.695251 
	C658.071655,194.328171 658.095215,195.081360 657.274780,195.314728 
	C656.285889,195.595963 655.670471,195.011383 655.343994,194.204681 
	C655.035522,193.442368 654.967346,192.586395 654.704285,191.801529 
	C651.446350,182.080963 645.019531,176.138336 634.603455,174.912827 
	C623.029724,173.551117 613.048462,176.703430 607.275574,187.178223 
	C598.597412,202.924545 598.600647,219.550064 606.341919,235.584763 
	C612.716736,248.789185 634.441895,253.783875 646.686646,245.818863 
	C648.443054,244.676361 648.393066,243.197067 648.429199,241.521439 
	C648.579590,234.539505 647.950806,227.535629 648.979858,220.578217 
	C649.966309,213.909485 661.437195,207.337418 667.371155,210.058670 
	C667.739746,210.227692 668.180542,210.713287 668.198914,211.071564 
	C668.235168,211.777924 667.745911,212.356186 667.008423,212.407272 
	C659.596069,212.920837 659.712646,218.638428 659.470825,223.736649 
	C659.171326,230.049652 659.396484,236.387054 659.370972,242.713821 
	C659.363831,244.496841 659.514099,246.064957 657.502991,247.397583 
	C641.294312,258.138123 615.406433,255.798798 601.463074,242.159363 
	C583.550049,224.636810 585.303162,191.026855 604.889648,176.466492 
	C617.162659,167.342880 637.567688,167.336121 652.300171,176.674194 
z"/>
<path fill="#F5095D" opacity="1.000000" stroke="none" 
	d="
M792.200989,183.065567 
	C792.374207,187.289062 792.481628,191.108627 792.563843,194.928726 
	C792.581726,195.760132 792.562744,196.779373 791.602173,196.986664 
	C790.254761,197.277435 790.089417,196.156006 789.837036,195.153992 
	C789.391541,193.385437 788.922668,191.615173 788.324463,189.893936 
	C784.492188,178.867279 775.880615,173.483917 764.325317,175.090027 
	C759.052307,175.822906 754.701355,178.385025 753.189392,183.758728 
	C751.717712,188.989334 753.294495,193.569031 757.700073,197.076828 
	C763.196106,201.452835 769.453979,204.594040 775.384644,208.267334 
	C779.479858,210.803772 783.584778,213.340439 787.530823,216.098175 
	C794.835327,221.203049 796.721680,228.414230 794.940186,236.782639 
	C793.261902,244.665939 788.197876,249.733093 780.687378,252.002945 
	C770.716431,255.016418 760.984070,253.586853 751.567200,249.336044 
	C744.402466,246.101868 742.220520,240.322296 743.085876,233.007614 
	C743.358582,230.701828 741.736755,226.844193 744.153992,226.437988 
	C746.897217,225.976990 746.035034,230.038925 746.692688,232.026947 
	C750.987427,245.009247 761.394470,251.077255 774.692444,247.997910 
	C779.323853,246.925446 783.174988,244.611252 784.588928,239.840424 
	C786.071411,234.838409 784.782166,230.311874 781.028381,226.567413 
	C777.933716,223.480331 774.222229,221.265137 770.530212,219.008652 
	C764.434021,215.282883 758.194031,211.760376 752.323425,207.705292 
	C744.549500,202.335526 741.630615,194.698196 743.815125,185.473099 
	C745.954346,176.439011 752.440918,171.906662 761.137634,170.456650 
	C769.578857,169.049225 777.713318,170.519836 785.271057,174.590698 
	C788.548645,176.356155 791.365234,178.679184 792.200989,183.065567 
z"/>
<path fill="#F5075C" opacity="1.000000" stroke="none" 
	d="
M683.126587,250.474182 
	C683.005920,229.562271 683.003540,209.092285 682.975708,188.622345 
	C682.972778,186.462296 682.997070,184.277664 682.699402,182.147690 
	C682.088867,177.778305 680.163696,174.617142 675.081909,174.635040 
	C674.049866,174.638672 672.630188,174.898224 672.302734,173.261414 
	C672.485840,172.488617 673.042603,172.183823 673.752075,172.199051 
	C686.878845,172.480637 700.068787,171.067200 713.124512,173.048004 
	C727.420288,175.216904 734.755493,185.156845 733.206665,199.531952 
	C731.988708,210.835480 723.241089,218.148148 709.787537,218.926331 
	C705.806274,219.156570 701.790955,219.186905 697.812500,218.950989 
	C694.814880,218.773254 693.764526,219.568054 693.864807,222.763290 
	C694.110168,230.577484 693.651306,238.419876 694.057739,246.220596 
	C694.291504,250.707489 692.915710,252.339020 688.556091,251.585983 
	C686.797058,251.282150 684.890564,252.112625 683.126587,250.474182 
z"/>
<path fill="#F5095D" opacity="1.000000" stroke="none" 
	d="
M448.112305,197.814072 
	C453.127686,202.401306 454.865753,208.078735 454.990784,214.222260 
	C455.214539,225.211945 455.176819,236.207901 455.136902,247.200836 
	C455.131622,248.660049 456.187866,250.903625 453.797363,251.399109 
	C451.767914,251.819733 449.480988,252.185623 447.936493,249.899536 
	C447.021027,248.544556 445.867645,247.350311 444.747284,245.994293 
	C438.708649,251.800568 431.767609,253.515747 423.888550,252.154297 
	C415.862061,250.767334 410.894867,245.460403 410.213409,237.317703 
	C409.597565,229.959015 413.264038,224.796829 421.085083,222.004227 
	C427.440857,219.734787 434.056915,219.018829 440.732880,219.059311 
	C443.592133,219.076660 444.664551,218.225540 444.237091,215.362167 
	C443.870056,212.903549 443.990021,210.401123 443.212646,207.966400 
	C441.339752,202.100555 438.365692,199.284393 433.321259,198.886078 
	C426.322327,198.333435 421.867523,200.424042 419.579559,206.198441 
	C418.467712,209.004593 416.744720,209.231857 414.590057,208.731079 
	C412.085052,208.148865 413.353088,206.008514 413.435699,204.561798 
	C413.651031,200.791168 415.334534,197.486526 418.948151,196.328552 
	C428.650757,193.219391 438.433197,191.842865 448.112305,197.814072 
z"/>
<path fill="#F5085C" opacity="1.000000" stroke="none" 
	d="
M558.599731,254.668823 
	C556.947876,259.256134 555.419861,263.465210 553.135681,267.368927 
	C549.650757,273.324860 544.283813,275.629852 537.648010,275.566589 
	C536.367249,275.554382 534.875793,275.887848 534.663025,273.865784 
	C534.450623,271.847107 535.939270,271.937317 537.208252,271.609619 
	C545.681824,269.421509 552.190247,261.870972 552.896545,253.270813 
	C552.984741,252.197433 552.486084,251.017426 552.058228,249.968918 
	C546.217224,235.655716 540.314819,221.367538 534.486572,207.049133 
	C532.349060,201.797653 528.985229,198.019821 523.213684,196.787231 
	C522.140564,196.558044 520.654419,196.371323 521.080200,194.705399 
	C521.412170,193.406815 522.711304,193.900543 523.625366,193.830826 
	C537.944275,192.738586 542.134155,195.323593 547.635620,208.640213 
	C551.292175,217.491043 554.930725,226.349335 559.114868,236.509644 
	C563.926819,223.304398 568.459961,211.467010 572.491943,199.461334 
	C573.842407,195.440460 575.733521,194.058746 580.130188,195.466339 
	C573.006836,215.094131 565.888855,234.706970 558.599731,254.668823 
z"/>
<path fill="#F5065B" opacity="1.000000" stroke="none" 
	d="
M512.942810,210.000000 
	C512.942810,222.481613 512.633423,234.475067 513.091064,246.439163 
	C513.281250,251.410645 511.204559,251.534393 507.343445,251.711685 
	C502.935913,251.914078 501.806030,250.659470 501.871124,246.225052 
	C502.147156,227.424637 501.994354,208.617813 501.979706,189.813339 
	C501.978027,187.651840 501.988800,185.477310 501.770172,183.331619 
	C501.274078,178.462738 499.728241,174.496902 493.720459,174.592102 
	C492.749512,174.607483 491.006714,174.927795 491.331512,173.039703 
	C491.555878,171.735519 492.938782,172.210617 493.843170,172.172470 
	C495.670502,172.095383 497.503265,172.147079 499.333801,172.147644 
	C510.494263,172.151108 512.664978,174.207031 512.887085,185.537674 
	C513.043579,193.522400 512.933716,201.512375 512.942810,210.000000 
z"/>
<path fill="#F50B5F" opacity="1.000000" stroke="none" 
	d="
M470.804504,199.093628 
	C468.751038,197.556778 466.727905,197.644730 464.741486,197.559525 
	C463.841644,197.520935 463.044281,197.209351 463.016174,196.198273 
	C462.984650,195.063812 463.911316,194.983185 464.750977,194.998001 
	C469.070801,195.074188 473.420929,194.887146 477.700775,195.347427 
	C481.712677,195.778870 483.491302,198.730225 484.088226,202.558578 
	C485.198120,209.676422 484.644196,216.835785 484.727570,223.976868 
	C484.816925,231.626221 484.398438,239.299088 484.871277,246.920135 
	C485.182739,251.940475 482.513397,251.540253 479.127747,251.680084 
	C475.362396,251.835587 473.498779,251.342209 473.646759,246.735275 
	C474.020416,235.105392 473.839661,223.454834 473.734253,211.813889 
	C473.695465,207.529541 473.860168,203.118698 470.804504,199.093628 
z"/>
<path fill="#F50A5D" opacity="1.000000" stroke="none" 
	d="
M483.199310,184.995148 
	C481.659332,187.332916 479.723846,188.225311 477.431274,187.630508 
	C473.535095,186.619644 471.732300,183.837448 471.781342,179.899979 
	C471.817108,177.027344 473.258698,175.190598 476.232635,174.900635 
	C480.245850,174.509384 482.331360,176.845001 483.531036,180.290085 
	C484.037689,181.745026 484.052185,183.220749 483.199310,184.995148 
z"/>
<path fill="#FFF7F9" opacity="1.000000" stroke="none" 
	d="
M127.642746,177.214172 
	C138.393524,182.873428 142.055374,191.743286 141.146530,203.108170 
	C140.305054,213.630707 133.862091,219.397751 124.837112,223.150864 
	C117.366234,226.257706 117.354614,226.252640 121.641258,233.377014 
	C126.186111,240.930511 130.642044,248.540375 135.334381,256.001373 
	C139.191284,262.134033 143.604965,267.747894 151.343033,269.307617 
	C152.509644,269.542786 153.600342,270.054352 153.533325,271.578125 
	C153.468689,273.047729 152.407318,273.580383 151.227615,273.782257 
	C143.007477,275.188812 135.343918,274.397461 128.941666,268.271637 
	C123.701424,263.257660 119.902435,257.202148 116.217064,251.064087 
	C112.365044,244.648438 108.636696,238.158630 104.846870,231.705582 
	C101.936684,226.750320 98.494576,225.391632 92.983078,226.563431 
	C90.364098,227.120239 91.124634,228.955307 91.118317,230.422684 
	C91.063065,243.247986 90.986656,256.074951 91.156120,268.898254 
	C91.198120,272.076752 90.440224,273.135254 87.077736,273.103546 
	C77.428093,273.012604 77.452560,273.178223 77.421463,263.466125 
	C77.340408,238.152206 77.389565,212.836304 77.054756,187.525604 
	C76.936104,178.555893 75.229904,177.135605 66.455605,175.608246 
	C65.349213,175.415680 63.916119,175.703705 63.933464,173.976883 
	C63.951031,172.227325 65.394814,172.417648 66.498375,172.450821 
	C83.283989,172.955460 100.130959,171.146774 116.861549,173.818542 
	C120.512497,174.401581 123.937744,175.608627 127.642746,177.214172 
z"/>
<path fill="#FFF8FA" opacity="1.000000" stroke="none" 
	d="
M168.088104,177.069183 
	C181.167587,165.254913 206.789886,169.715439 216.953003,177.879837 
	C220.240158,180.520538 222.353500,183.769699 222.479492,188.037308 
	C222.612122,192.529678 222.565460,197.028091 222.546906,201.523651 
	C222.542358,202.626816 222.785400,204.062988 221.004181,204.062927 
	C219.737854,204.062866 219.504883,202.968323 219.220535,202.012970 
	C218.226608,198.673462 217.494614,195.228683 216.197617,192.011551 
	C211.162415,179.522003 196.499817,172.802902 183.628860,176.959244 
	C177.876266,178.816910 173.670807,182.273178 172.406952,188.490707 
	C171.158005,194.635025 173.281097,199.593384 177.967682,203.573914 
	C184.737000,209.323380 192.683136,213.244949 200.200165,217.827728 
	C205.595871,221.117233 211.033905,224.310242 216.175125,228.020645 
	C225.240952,234.563385 227.978287,243.467682 225.835846,253.940521 
	C223.755203,264.111359 217.229187,270.933655 207.385773,273.677338 
	C194.046432,277.395294 181.018326,275.729095 168.783005,269.060730 
	C162.725052,265.759094 159.353165,260.890747 160.007584,253.627075 
	C160.305267,250.323151 160.014236,246.969284 160.086868,243.640152 
	C160.109268,242.613159 159.535980,241.136826 161.369156,240.922104 
	C163.055908,240.724548 163.177917,242.073242 163.421219,243.164474 
	C164.437790,247.723572 165.792480,252.157089 168.075409,256.261932 
	C174.942200,268.608826 194.715500,273.547668 206.606873,265.890045 
	C214.499298,260.807617 215.657486,249.861725 209.034332,242.391037 
	C205.113327,237.968246 200.066925,235.020706 195.086212,231.990860 
	C187.134827,227.153915 178.807159,222.910507 171.351822,217.288010 
	C157.616623,206.929474 156.146118,189.885788 168.088104,177.069183 
z"/>
<path fill="#FFFCFD" opacity="1.000000" stroke="none" 
	d="
M343.303833,185.194427 
	C343.313354,177.688553 343.313354,177.688553 350.245209,176.910339 
	C370.532410,174.632812 385.536499,187.181564 386.883698,207.701782 
	C387.639282,219.210693 385.595642,229.964447 377.112671,238.538574 
	C368.227570,247.519180 357.347290,248.428909 345.641724,246.130981 
	C342.471344,245.508606 343.344849,243.330383 343.339386,241.558884 
	C343.282104,222.928619 343.303833,204.298126 343.303833,185.194427 
z"/>
<path fill="#FFFDFD" opacity="1.000000" stroke="none" 
	d="
M721.060913,191.521149 
	C723.330750,207.476837 712.653625,216.459442 695.952393,214.845367 
	C694.026062,214.659195 693.938782,213.560867 693.939697,212.143967 
	C693.946960,201.501785 693.959229,190.859573 693.928406,180.217484 
	C693.923523,178.528091 694.354065,177.544189 696.223572,177.035873 
	C707.365662,174.006454 717.692383,179.797531 721.060913,191.521149 
z"/>
<path fill="#FFFCFD" opacity="1.000000" stroke="none" 
	d="
M433.125580,224.726898 
	C444.302887,222.677414 444.302917,222.677414 444.269104,235.691360 
	C444.247467,244.015381 436.832916,249.355072 428.983917,246.550491 
	C425.186829,245.193756 422.429535,242.717972 421.892273,238.378159 
	C421.338226,233.902466 422.421783,230.133728 426.334747,227.515610 
	C428.284607,226.210968 430.406372,225.290451 433.125580,224.726898 
z"/>
<path fill="#F50359" opacity="1.000000" stroke="none" 
	d="
M119.993774,185.017853 
	C126.397949,191.740356 127.720802,199.323563 124.526093,207.430801 
	C121.097313,216.132019 113.513268,219.679306 104.940811,220.872360 
	C91.114990,222.796539 91.083206,222.568542 91.083275,208.831192 
	C91.083321,200.165604 91.177406,191.498383 91.027878,182.835373 
	C90.981567,180.152344 91.821167,179.220703 94.517456,178.670090 
	C103.957672,176.742279 112.332405,178.545486 119.993774,185.017853 
z"/>
</svg>