<svg xmlns="http://www.w3.org/2000/svg" version="1.1" xmlns:xlink="http://www.w3.org/1999/xlink" width="100%" height="100%" viewBox="0 0 1000 600"><rect width="1000" height="600" x="0" y="0" fill="#f50057"/><g><rect width="333.3333333333333" height="333.3333333333333" rx="13.333333333333334" ry="13.333333333333334" y="203.7129433118192" fill="#ffffff" transform="matrix(0.6887405093586543,0,0,0.6887405093586543,0,44.90455869164079)" x="181.4907989501953"/><path d="M259.5562600589342 441.09389550692185L217.11578194110592 441.09389550692185L217.11578194110592 325.3796045376958Q217.11578194110592 315.73674695692694 214.43721039089235 309.84388954645715Q211.7586388406788 303.95103213598725 202.11578125990994 303.95103213598725L202.11578125990994 303.95103213598725L197.83006677956826 303.95103213598725L197.83006677956826 299.6653176556456L253.9907836157127 299.6653176556456Q296.40149982742753 299.6653176556456 317.2943579190933 318.5343661315944Q338.18721601075913 337.37365270142993 338.18721601075913 369.51651130399273L338.18721601075913 369.51651130399273Q338.18721601075913 390.32008367731805 329.28840608282735 406.4807986969399Q320.4193580610091 422.67127562267524 302.949119172394 431.86770461174183Q285.47888028377884 441.09389550692185 259.5562600589342 441.09389550692185L259.5562600589342 441.09389550692185ZM258.9014981244376 433.5938951663238L258.9014981244376 433.5938951663238Q274.7645940829246 433.5938951663238 287.41340418115533 425.8855614829315Q300.062214279386 418.1772277995391 307.4431669955301 403.92127477118026Q314.82411971167414 389.66532174282145 314.82411971167414 370.3796065812837L314.82411971167414 370.3796065812837Q314.82411971167414 351.3022247625404 307.56221461998405 337.16531935863543Q300.2705476221804 323.0284139547306 287.6217375239497 315.08198502243033Q274.972927425719 307.1653179962435 258.4848314388488 307.1653179962435L258.4848314388488 307.1653179962435Q253.75268836680482 307.1653179962435 248.30625954803725 308.0284132735346Q242.83006882315615 308.8915085508256 237.05625903714025 310.5879371992942L237.05625903714025 310.5879371992942L237.05625903714025 430.79627599165633Q241.34197351748196 431.65937126894744 245.09197368778095 432.31413320344404Q248.84197385807994 432.9391332318272 252.38364068558457 433.2665141990756Q255.89554560697567 433.5938951663238 258.9014981244376 433.5938951663238ZM429.913410652517 445.3796099872636L429.913410652517 445.3796099872636Q413.84198135123563 445.3796099872636 400.4491236001678 439.36770495233975Q387.0562658491 433.38556182352943 377.4134082683312 422.87960896546963Q367.77055068756226 412.3736561074097 362.4134075871352 398.3557983279587Q357.0562644867081 384.3081786423943 357.0562644867081 368.23674934111284L357.0562644867081 368.23674934111284Q357.0562644867081 347.87960555948973 365.18126485568916 331.3915095726196Q373.3360271307838 314.87365167963594 388.2169801875259 305.1415083805266Q403.1276951503813 295.3796031753038 423.4848389320045 295.3796031753038L423.4848389320045 295.3796031753038Q442.97888743633655 295.3796031753038 456.044364220156 300.4093653084826Q469.1098410039755 305.43912744166147 474.91341269610496 312.52246109667067L474.91341269610496 312.52246109667067Q478.9907938336522 317.46293751150904 479.6157938620354 325.7962712232846Q480.270555796532 334.15936684117355 480.270555796532 341.4510338389772L480.270555796532 341.4510338389772L475.98484131619034 341.4510338389772Q471.9074601786431 322.8200806119362 460.657459667746 313.3855563739617Q449.4074591568491 303.95103213598725 429.913410652517 303.95103213598725L429.913410652517 303.95103213598725Q416.1931719342009 303.95103213598725 406.43126672897813 309.42722286086837Q396.6991234298688 314.87365167963594 390.47888505215064 324.09984257481597Q384.2586466744325 333.29627156388256 381.3717417814245 344.78436732368743Q378.48483688841657 356.24270117737876 378.48483688841657 368.23674934111284L378.48483688841657 368.23674934111284Q378.48483688841657 393.9510362231631 385.44912291897185 408.95103690435906Q392.41340894952714 423.951037585555 404.19912377046677 430.37960930606766Q415.9848385914065 436.8081810265802 429.913410652517 436.8081810265802L429.913410652517 436.8081810265802Q441.49079213066227 436.8081810265802 449.1991258140547 434.7843714108633Q456.9074594974471 432.7307998890328 463.12769787516527 429.30818068598217L463.12769787516527 429.30818068598217L463.12769787516527 392.0165123257866Q463.12769787516527 387.52246450265056 464.19912649525065 383.11770239785494Q465.27055511533615 378.74270219917275 468.81222194284067 375.08198774721416Q472.32412686423174 371.4510352013691 479.407460519241 369.18913033674437Q486.49079417425025 366.95698737823307 498.48484233798433 366.95698737823307L498.48484233798433 366.95698737823307L498.48484233798433 371.2427018585747Q487.9788894799244 371.2427018585747 485.18127030525693 376.6891306773423Q482.4134130367029 382.1653214022234 482.4134130367029 391.5998456401978L482.4134130367029 391.5998456401978L482.4134130367029 431.86770461174183Q470.8360315585576 438.95103826675097 458.1872214603269 442.16532412700735Q445.5384113620961 445.3796099872636 429.913410652517 445.3796099872636Z " fill="#f50057" transform="matrix(0.6887405093586543,0,0,0.6887405093586543,0,44.90455869164079)"/><path d="M647.2578376580702 411.28870115457073L613.498368286308 411.28870115457073L613.498368286308 319.2432474957968Q613.498368286308 311.5727930242324 611.3676864886512 306.8852930693874Q609.2370046909944 302.19779311454243 601.5665502194299 302.19779311454243L601.5665502194299 302.19779311454243L598.157459343179 302.19779311454243L598.157459343179 298.78870223829153L642.8307543673833 298.78870223829153Q676.5665494969494 298.78870223829153 693.1858675186725 313.7981717906739Q709.8051855403954 328.7839671008601 709.8051855403954 354.3521486727417L709.8051855403954 354.3521486727417Q709.8051855403954 370.9004439678762 702.7265871237356 383.7555574804056Q695.671662949272 396.63434523513115 681.7748827801104 403.9496860737529Q667.8781026109489 411.28870115457073 647.2578376580702 411.28870115457073L647.2578376580702 411.28870115457073ZM646.7370043297542 405.32279212113167L646.7370043297542 405.32279212113167Q659.3553754203217 405.32279212113167 669.416928353701 399.19116339231937Q679.4784812870803 393.05953466350695 685.3496933517347 381.71957265153355Q691.2209054163889 370.37961063956016 691.2209054163889 355.0387016964312L691.2209054163889 355.0387016964312Q691.2209054163889 339.86351244867546 685.4443903205195 328.61824740548684Q679.6442009824536 317.3729823622981 669.5826480490744 311.05195969591625Q659.521095115695 304.7546112717306 646.4055649390075 304.7546112717306L646.4055649390075 304.7546112717306Q642.6413604298139 304.7546112717306 638.3089741079116 305.44116429542Q633.9529135438133 306.1277173191094 629.3601105577532 307.47714912429205L629.3601105577532 307.47714912429205L629.3601105577532 403.09741335469016Q632.7692014340039 403.78396637837955 635.7521559507235 404.3047997066957Q638.7351104674431 404.80195879281564 641.5523452887892 405.06237545697365Q644.3459058679393 405.32279212113167 646.7370043297542 405.32279212113167ZM748.678291226534 412.9932465926962L748.678291226534 412.9932465926962Q745.10348065491 412.9932465926962 740.9131397861848 411.88055720947546Q736.7464731596559 410.7678678262546 732.8165489550889 408.04532997369313Q728.9102989927181 405.32279212113167 726.4245035621185 400.7299891350715Q723.9623823737151 396.1135119068151 723.9623823737151 389.12961045893996L723.9623823737151 389.12961045893996Q723.9623823737151 379.75461054925006 729.9993141337428 374.64097423487374Q736.0599201359665 369.5273379204974 746.026776100561 367.39665612284057Q755.9936320651558 365.26597432518383 767.4282910459139 365.26597432518383L767.4282910459139 365.26597432518383L772.5419273602903 365.26597432518383Q772.5419273602903 353.3341562583057 770.1508288984754 347.10783056070863Q767.7597304366606 340.88150486311156 763.758783505505 338.58510337008136Q759.7578365743494 336.28870187705127 754.644200259973 336.28870187705127L754.644200259973 336.28870187705127Q747.4709048745286 336.28870187705127 742.6176852243103 339.3663533625555Q737.764465574092 342.4203306058637 735.8942004405932 350.7773381011175L735.8942004405932 350.7773381011175L728.2237459690288 350.7773381011175Q728.2237459690288 346.35025481043067 728.7209050551486 342.51502757464834Q729.2417383834648 338.67980033886613 732.4851095643425 335.4364291579885L732.4851095643425 335.4364291579885Q735.7284807452198 332.19305797711104 743.0438215838416 330.84362617192835Q750.3828366646595 329.47052012454947 758.053291136224 329.47052012454947L758.053291136224 329.47052012454947Q763.8534804742898 329.47052012454947 769.2038592106279 330.84362617192835Q774.5779121891622 332.19305797711104 778.7682530578874 335.8625655175199Q782.9349196844163 339.53207305792887 785.3970408728197 346.6106714745887Q787.8828363034194 353.6655956490523 787.8828363034194 365.26597432518383L787.8828363034194 365.26597432518383L787.8828363034194 411.28870115457073L779.360109112792 411.28870115457073L773.394200079353 403.6182466830063L772.5419273602903 403.6182466830063Q769.9851092031021 406.8616178638838 764.1849198650362 409.91559510719196Q758.3847305269707 412.9932465926962 748.678291226534 412.9932465926962ZM756.3487456980985 405.32279212113167L756.3487456980985 405.32279212113167Q762.6460941222841 405.32279212113167 766.3156016626932 402.17411790903884Q769.9851092031021 399.025443696946 772.5419273602903 395.095519492379L772.5419273602903 395.095519492379L772.5419273602903 372.0841560776855L767.4282910459139 372.0841560776855Q754.644200259973 372.0841560776855 747.39988214794 376.7716560325306Q740.1555640359069 381.45915598737554 740.1555640359069 389.12961045893996L740.1555640359069 389.12961045893996Q740.1555640359069 397.4866179541939 745.10348065491 401.3928679165647Q750.0277230317166 405.32279212113167 756.3487456980985 405.32279212113167ZM829.4784798421193 411.28870115457073L814.1375708989902 411.28870115457073L814.1375708989902 351.62961082018023Q814.1375708989902 343.9591563486158 812.0068891013335 339.27165639377085Q809.8762073036768 334.5841564389258 802.2057528321121 334.5841564389258L802.2057528321121 334.5841564389258L798.7966619558614 334.5841564389258L798.7966619558614 331.17506556267494L814.1375708989902 331.17506556267494Q820.1034799324294 331.17506556267494 823.4178738398954 332.71389130542707Q826.7322677473616 334.2527170481792 828.1053737947406 338.67980033886613Q829.4784798421193 343.10688362955307 829.4784798421193 351.62961082018023L829.4784798421193 351.62961082018023L829.4784798421193 411.28870115457073ZM820.6006390185493 320.9477929339223L820.6006390185493 320.9477929339223Q816.6943890561785 320.9477929339223 813.8771542348321 317.7044217530447Q811.059919413486 314.46105057216715 811.059919413486 310.0339672814802L811.059919413486 310.0339672814802Q811.059919413486 306.4591567098561 813.1906012111427 304.423171880984Q815.3212830087997 302.36351280991573 818.8960935804238 302.36351280991573L818.8960935804238 302.36351280991573Q822.8260177849908 302.36351280991573 825.6432526063371 305.60688399079334Q828.436813185487 308.8502551716709 828.436813185487 313.2773384623578L828.436813185487 313.2773384623578Q828.436813185487 316.85214903398196 826.3061313878303 318.9118081050502Q824.1754495901736 320.9477929339223 820.6006390185493 320.9477929339223ZM869.5352976380672 411.28870115457073L854.1943886949383 411.28870115457073L854.1943886949383 319.2432474957968Q854.1943886949383 311.5727930242324 852.0637068972813 306.8852930693874Q849.9330250996246 302.19779311454243 842.2625706280602 302.19779311454243L842.2625706280602 302.19779311454243L838.8534797518092 302.19779311454243L838.8534797518092 298.78870223829153L854.1943886949383 298.78870223829153Q860.1602977283773 298.78870223829153 863.4746916358434 300.32752798104366Q866.7890855433096 301.8663537237958 868.1621915906884 306.2934370144827Q869.5352976380672 310.72052030516966 869.5352976380672 319.2432474957968L869.5352976380672 319.2432474957968L869.5352976380672 411.28870115457073ZM905.4964715340747 445.3796099170796L900.3828352196984 445.3796099170796L900.3828352196984 440.2659736027033Q908.2190093866362 440.2659736027033 913.7587820605439 436.7621857576677Q919.2985547344516 433.28207215482826 923.394198634392 422.3682465023861L923.394198634392 422.3682465023861L926.8032895106429 412.9932465926962L899.5305625006357 346.5159745058039Q896.9737443434475 340.0292321440488 892.1205246932292 336.8095352053674Q887.2436308008149 333.5661640244898 880.7805626812559 332.8796110008004L880.7805626812559 332.8796110008004L880.7805626812559 329.47052012454947L895.2691989053222 329.47052012454947Q902.9396533768867 329.47052012454947 907.9585927224781 333.04533069617366Q913.001206310266 336.62014126779786 915.7237441628275 343.10688362955307L915.7237441628275 343.10688362955307L935.1602970058967 390.3133225687493L956.6328346778381 331.17506556267494L965.1555618684653 331.17506556267494L931.9169258250191 422.3682465023861Q928.5078349487682 431.743246412076 924.672607712986 436.6911630310791Q920.8373804772037 441.63907965008207 916.1498805223588 443.5093447835809Q911.4623805675138 445.3796099170796 905.4964715340747 445.3796099170796L905.4964715340747 445.3796099170796ZM1035.5390839177285 414.6977920308217L1035.5390839177285 414.6977920308217Q1022.7549931317875 414.6977920308217 1012.1015841435034 409.91559510719196Q1001.4481751552195 405.15707242575843 993.777720683655 396.8000649305045Q986.1072662120906 388.4430574352506 981.8459026167769 377.2924893608466Q977.5845390214632 366.1182470442466 977.5845390214632 353.3341562583057L977.5845390214632 353.3341562583057Q977.5845390214632 337.140974596114 984.0712813832184 324.02544441942655Q990.5580237449736 310.88624000054295 1002.395144843067 303.1447628023899Q1014.2322659411603 295.3796113620407 1030.425447603352 295.3796113620407L1030.425447603352 295.3796113620407Q1045.9557504840504 295.3796113620407 1056.3487428081767 299.3805582931962Q1066.7417351323024 303.38150522435177 1071.3345381183626 309.0159748670442L1071.3345381183626 309.0159748670442Q1074.5779092992402 312.94589907161117 1075.0987426275565 319.5746868865435Q1075.595901713676 326.2271489436719 1075.595901713676 332.0273382817377L1075.595901713676 332.0273382817377L1072.1868108374251 332.0273382817377Q1068.9671138987437 317.2072626669248 1060.0182503485853 309.7025278907336Q1051.0693867984269 302.19779311454243 1035.5390839177285 302.19779311454243L1035.5390839177285 302.19779311454243Q1024.6489325074826 302.19779311454243 1016.8837810671333 306.55385367864073Q1009.1186296267839 310.88624000054295 1004.194387249977 318.22525508136084Q999.2464706309742 325.5405959199825 996.9500691379441 334.67885340771056Q994.6299934027178 343.79343665324245 994.6299934027178 353.3341562583057L994.6299934027178 353.3341562583057Q994.6299934027178 373.788701515811 1000.1697660766255 385.7205195826891Q1005.7095387505332 397.65233764956724 1015.0845386602231 402.76597396394357Q1024.459538569913 407.8796102783199 1035.5390839177285 407.8796102783199L1035.5390839177285 407.8796102783199Q1044.748364132045 407.8796102783199 1050.8799928608573 406.2697618089792Q1057.0352958318658 404.6362390974423 1061.9595382086727 401.9137012448808L1061.9595382086727 401.9137012448808L1061.9595382086727 372.2498757730589Q1061.9595382086727 368.6750652014347 1062.8118109277352 365.17127735639906Q1063.6640836467982 361.69116375355964 1066.4813184681443 358.77923196342863Q1069.2985532894904 355.8909744154938 1074.9330229321831 354.0917320085837Q1080.5438183326792 352.31616384386973 1090.0845379377424 352.31616384386973L1090.0845379377424 352.31616384386973L1090.0845379377424 355.7252547201206Q1081.7512046846846 355.7252547201206 1079.5258259182433 360.05764104202274Q1077.3004471518016 364.4137016061211 1077.3004471518016 371.9184363823123L1077.3004471518016 371.9184363823123L1077.3004471518016 403.9496860737529Q1068.1148411796812 409.58415571644525 1058.0532882463017 412.14097387363347Q1047.9917353129226 414.6977920308217 1035.5390839177285 414.6977920308217ZM1126.2351057713195 411.28870115457073L1110.8941968281906 411.28870115457073L1110.8941968281906 319.2432474957968Q1110.8941968281906 311.5727930242324 1108.7635150305337 306.8852930693874Q1106.6328332328771 302.19779311454243 1098.9623787613123 302.19779311454243L1098.9623787613123 302.19779311454243L1095.5532878850618 302.19779311454243L1095.5532878850618 298.78870223829153L1139.8714692763233 298.78870223829153Q1144.2985525670101 298.78870223829153 1149.8383252409176 299.3805582931962Q1155.3780979148255 299.97241434810087 1161.0835902841063 301.93737645038436Q1166.7890826533876 303.90233855266786 1171.665976545802 307.6428688196654Q1176.51919619602 311.40707332885904 1179.5021507127394 317.5387020576714Q1182.485105229459 323.67033078648376 1182.485105229459 332.8796110008004L1182.485105229459 332.8796110008004Q1182.485105229459 341.56805788680094 1179.573173439328 347.4629441936514Q1176.6849158913933 353.3341562583057 1171.9974159365484 356.9089668299299Q1167.3099159817034 360.4837774015541 1162.196279667327 362.28301980846425Q1157.082643352951 364.0822622153745 1152.4898403668908 364.6741182702791Q1147.873363138634 365.26597432518383 1144.9851055906993 365.26597432518383L1144.9851055906993 365.26597432518383L1126.2351057713195 365.26597432518383L1126.2351057713195 411.28870115457073ZM1126.2351057713195 306.4591567098561L1126.2351057713195 359.3000652917448L1139.0191965572603 359.3000652917448Q1142.5940071288846 359.3000652917448 1147.0210904195715 357.9269592443659Q1151.4481737102583 356.5775274391833 1155.7095373055718 353.3341562583057Q1159.9709009008857 350.0907850774281 1162.7171129956432 344.9061260364632Q1165.4396508482046 339.6977927533022 1165.4396508482046 332.0273382817377L1165.4396508482046 332.0273382817377Q1165.4396508482046 324.35688381017314 1162.7171129956432 319.1485505270121Q1159.9709009008857 313.96389148604726 1155.7095373055718 310.72052030516966Q1151.4481737102583 307.47714912429205 1147.0210904195715 306.1277173191094Q1142.5940071288846 304.7546112717306 1139.0191965572603 304.7546112717306L1139.0191965572603 304.7546112717306Q1135.7758253763827 304.7546112717306 1132.272037531347 305.27544460004674Q1128.7919239285075 305.77260368616663 1126.2351057713195 306.4591567098561L1126.2351057713195 306.4591567098561ZM1234.970900178405 414.17695870250554L1234.970900178405 414.17695870250554Q1228.1527184259035 414.17695870250554 1221.263513946813 412.7328299285382Q1214.3506352255263 411.28870115457073 1208.6451428562455 408.5661633020093Q1202.9396504869646 405.8436254494478 1199.5305596107137 402.0083982136656Q1196.1214687344627 398.1731709778833 1196.1214687344627 393.39097405425366L1196.1214687344627 393.39097405425366L1196.1214687344627 375.1618075631899L1199.1754459777708 375.1618075631899Q1202.0873777679017 392.37298163981757 1210.5154079897443 399.87771641600875Q1218.9671124537826 407.35877695000374 1233.455748677849 407.35877695000374L1233.455748677849 407.35877695000374Q1239.2322637737184 407.35877695000374 1244.3459000880948 405.41748908991644Q1249.4595364024713 403.45252698763295 1252.6318848567603 399.52260278306596Q1255.780559068853 395.61635282069517 1255.780559068853 389.9818831780027L1255.780559068853 389.9818831780027Q1255.780559068853 382.4771484018115 1251.0930591140082 377.19779239206196Q1246.4055591591632 371.9184363823123 1237.0305592494733 366.44968643499317L1237.0305592494733 366.44968643499317L1216.0551806636518 354.0207092819951Q1205.1413550112097 347.53396692024 1200.6432489939343 340.88150486311156Q1196.1214687344627 334.2527170481792 1196.1214687344627 324.6883232009198L1196.1214687344627 324.6883232009198Q1196.1214687344627 311.5727930242324 1205.2360519799945 303.64192188850984Q1214.3506352255263 295.7110507527873 1229.1943850825355 295.7110507527873L1229.1943850825355 295.7110507527873Q1235.4917335067212 295.7110507527873 1241.9784758684764 297.08415680016606Q1248.4415439880354 298.45726284754494 1253.9102939353543 301.0851037313216Q1259.3553696404774 303.73661885729456 1262.6697635479436 307.47714912429205Q1266.007831697606 311.2413536334858 1266.007831697606 316.1655960102926L1266.007831697606 316.1655960102926L1266.007831697606 334.41843674355255L1262.9301802121017 334.41843674355255Q1260.041922664167 317.2072626669248 1251.850634864286 309.8682475861069Q1243.6830213066019 302.5292325052891 1229.1943850825355 302.5292325052891L1229.1943850825355 302.5292325052891Q1224.2464684635324 302.5292325052891 1219.629991235276 304.6599143029458Q1215.037188249216 306.79059610060267 1212.2199534278698 310.6258233363849Q1209.4027186065232 314.46105057216715 1209.4027186065232 319.76408082411297L1209.4027186065232 319.76408082411297Q1209.4027186065232 327.0794216627346 1214.184915530153 331.86161858636433Q1218.9671124537826 336.62014126779786 1228.3421123634726 342.088891215117L1228.3421123634726 342.088891215117L1249.293816707098 354.51786836811505Q1260.20764235954 361.00461072987025 1265.3212786739164 367.065216732094Q1270.4349149882928 373.1021484921216 1270.4349149882928 382.6428680971849L1270.4349149882928 382.6428680971849Q1270.4349149882928 396.96578462587775 1260.8941953832295 405.5832087852898Q1251.3534757781663 414.17695870250554 1234.970900178405 414.17695870250554Z " fill="#ffffff" transform="matrix(0.6887405093586543,0,0,0.6887405093586543,0,44.90455869164079)"/></g></svg>